M48
; DRILL file {KiCad (5.1.10-1-10_14)} date Thursday, September 30, 2021 at 12:00:03 AM
; FORMAT={-:-/ absolute / metric / decimal}
; #@! TF.CreationDate,2021-09-30T00:00:03+10:00
; #@! TF.GenerationSoftware,Kicad,Pcbnew,(5.1.10-1-10_14)
; #@! TF.FileFunction,Plated,1,2,PTH
FMAT,2
METRIC
T1C0.200
T2C0.400
T3C0.600
%
G90
G05
T1
X141.665Y-83.058
X142.24Y-82.108
X142.24Y-84.008
X142.815Y-83.058
T2
X134.62Y-94.437
X135.47Y-86.425
X138.074Y-87.757
X140.36Y-91.465
X140.36Y-93.32
X140.716Y-94.996
X142.748Y-88.392
X146.812Y-93.939
X146.984Y-91.014
X150.622Y-87.884
X150.622Y-94.742
X151.562Y-85.9
T3
X128.561Y-84.555G85X127.961Y-84.555
G05
X128.561Y-93.195G85X127.961Y-93.195
G05
X132.991Y-84.555G85X131.891Y-84.555
G05
X132.991Y-93.195G85X131.891Y-93.195
G05
T0
M30
